<mxfile host="app.diagrams.net" agent="Mozilla/5.0 (Windows NT 10.0; Win64; x64) AppleWebKit/537.36 (KHTML, like Gecko) Chrome/128.0.0.0 Safari/537.36 Edg/128.0.0.0" version="24.7.13">
  <diagram name="Page-1" id="WkQHQSfR3UGzcdIJU_Ku">
    <mxGraphModel dx="1386" dy="783" grid="1" gridSize="10" guides="1" tooltips="1" connect="1" arrows="1" fold="1" page="1" pageScale="1" pageWidth="850" pageHeight="1100" math="0" shadow="0">
      <root>
        <mxCell id="0" />
        <mxCell id="1" parent="0" />
        <mxCell id="NFCg2wp4Cs7eFLvAv7eK-1" value="CAO" style="ellipse;whiteSpace=wrap;html=1;aspect=fixed;" parent="1" vertex="1">
          <mxGeometry x="350" y="250" width="60" height="60" as="geometry" />
        </mxCell>
        <mxCell id="NFCg2wp4Cs7eFLvAv7eK-2" value="Cold Advection" style="rounded=0;whiteSpace=wrap;html=1;" parent="1" vertex="1">
          <mxGeometry x="30" y="140" width="90" height="30" as="geometry" />
        </mxCell>
        <mxCell id="NFCg2wp4Cs7eFLvAv7eK-3" value="Adiabatic warming" style="rounded=0;whiteSpace=wrap;html=1;" parent="1" vertex="1">
          <mxGeometry x="30" y="180" width="90" height="30" as="geometry" />
        </mxCell>
        <mxCell id="NFCg2wp4Cs7eFLvAv7eK-4" value="Cyclogenesis" style="rounded=0;whiteSpace=wrap;html=1;" parent="1" vertex="1">
          <mxGeometry x="130" y="140" width="90" height="30" as="geometry" />
        </mxCell>
        <mxCell id="NFCg2wp4Cs7eFLvAv7eK-5" value="Anticyclone" style="rounded=0;whiteSpace=wrap;html=1;" parent="1" vertex="1">
          <mxGeometry x="130" y="180" width="90" height="30" as="geometry" />
        </mxCell>
        <mxCell id="NFCg2wp4Cs7eFLvAv7eK-7" value="Arctic Air Mass" style="rounded=0;whiteSpace=wrap;html=1;" parent="1" vertex="1">
          <mxGeometry x="370" y="10" width="90" height="30" as="geometry" />
        </mxCell>
        <mxCell id="NFCg2wp4Cs7eFLvAv7eK-8" value="Diabatic Cooling" style="rounded=0;whiteSpace=wrap;html=1;" parent="1" vertex="1">
          <mxGeometry x="370" y="50" width="90" height="30" as="geometry" />
        </mxCell>
        <mxCell id="NFCg2wp4Cs7eFLvAv7eK-9" value="Anticyclone" style="rounded=0;whiteSpace=wrap;html=1;" parent="1" vertex="1">
          <mxGeometry x="370" y="130" width="90" height="30" as="geometry" />
        </mxCell>
        <mxCell id="NFCg2wp4Cs7eFLvAv7eK-10" value="Cold air Damming" style="rounded=0;whiteSpace=wrap;html=1;" parent="1" vertex="1">
          <mxGeometry x="370" y="90" width="90" height="30" as="geometry" />
        </mxCell>
        <mxCell id="NFCg2wp4Cs7eFLvAv7eK-11" value="Cyclone &quot;Bomb&quot;" style="rounded=0;whiteSpace=wrap;html=1;" parent="1" vertex="1">
          <mxGeometry x="230" y="140" width="90" height="30" as="geometry" />
        </mxCell>
        <mxCell id="NFCg2wp4Cs7eFLvAv7eK-12" value="MJO" style="rounded=0;whiteSpace=wrap;html=1;" parent="1" vertex="1">
          <mxGeometry x="580" y="240" width="90" height="30" as="geometry" />
        </mxCell>
        <mxCell id="NFCg2wp4Cs7eFLvAv7eK-13" value="Blocking" style="rounded=0;whiteSpace=wrap;html=1;" parent="1" vertex="1">
          <mxGeometry x="520" y="280" width="90" height="30" as="geometry" />
        </mxCell>
        <mxCell id="NFCg2wp4Cs7eFLvAv7eK-14" value="Jet Stream" style="rounded=0;whiteSpace=wrap;html=1;" parent="1" vertex="1">
          <mxGeometry x="460" y="320" width="90" height="30" as="geometry" />
        </mxCell>
        <mxCell id="NFCg2wp4Cs7eFLvAv7eK-15" value="NAO" style="rounded=0;whiteSpace=wrap;html=1;" parent="1" vertex="1">
          <mxGeometry x="620" y="200" width="90" height="30" as="geometry" />
        </mxCell>
        <mxCell id="NFCg2wp4Cs7eFLvAv7eK-16" value="PNA" style="rounded=0;whiteSpace=wrap;html=1;" parent="1" vertex="1">
          <mxGeometry x="620" y="160" width="90" height="30" as="geometry" />
        </mxCell>
        <mxCell id="NFCg2wp4Cs7eFLvAv7eK-17" value="AO" style="rounded=0;whiteSpace=wrap;html=1;" parent="1" vertex="1">
          <mxGeometry x="620" y="120" width="90" height="30" as="geometry" />
        </mxCell>
        <mxCell id="NFCg2wp4Cs7eFLvAv7eK-18" value="ENSO" style="rounded=0;whiteSpace=wrap;html=1;" parent="1" vertex="1">
          <mxGeometry x="700" y="80" width="90" height="30" as="geometry" />
        </mxCell>
        <mxCell id="NFCg2wp4Cs7eFLvAv7eK-19" value="AA" style="rounded=0;whiteSpace=wrap;html=1;" parent="1" vertex="1">
          <mxGeometry x="340" y="400" width="90" height="30" as="geometry" />
        </mxCell>
        <mxCell id="NFCg2wp4Cs7eFLvAv7eK-20" value="Polar Vortex" style="rounded=0;whiteSpace=wrap;html=1;" parent="1" vertex="1">
          <mxGeometry x="610" y="360" width="90" height="30" as="geometry" />
        </mxCell>
        <mxCell id="NFCg2wp4Cs7eFLvAv7eK-21" value="SSW" style="rounded=0;whiteSpace=wrap;html=1;" parent="1" vertex="1">
          <mxGeometry x="710" y="360" width="90" height="30" as="geometry" />
        </mxCell>
        <mxCell id="NFCg2wp4Cs7eFLvAv7eK-23" value="PDO" style="rounded=0;whiteSpace=wrap;html=1;" parent="1" vertex="1">
          <mxGeometry x="800" y="20" width="90" height="30" as="geometry" />
        </mxCell>
        <mxCell id="NFCg2wp4Cs7eFLvAv7eK-24" value="AMO" style="rounded=0;whiteSpace=wrap;html=1;" parent="1" vertex="1">
          <mxGeometry x="800" y="60" width="90" height="30" as="geometry" />
        </mxCell>
        <mxCell id="NFCg2wp4Cs7eFLvAv7eK-25" value="Ice &amp;amp; Snow Cover" style="rounded=0;whiteSpace=wrap;html=1;" parent="1" vertex="1">
          <mxGeometry x="395" y="440" width="90" height="30" as="geometry" />
        </mxCell>
        <mxCell id="NFCg2wp4Cs7eFLvAv7eK-26" value="Warm Arti Cold Continents" style="rounded=0;whiteSpace=wrap;html=1;" parent="1" vertex="1">
          <mxGeometry x="275" y="440" width="90" height="30" as="geometry" />
        </mxCell>
        <mxCell id="NFCg2wp4Cs7eFLvAv7eK-27" value="Intensity" style="rounded=0;whiteSpace=wrap;html=1;" parent="1" vertex="1">
          <mxGeometry x="150" y="270" width="90" height="30" as="geometry" />
        </mxCell>
        <mxCell id="NFCg2wp4Cs7eFLvAv7eK-28" value="Duration" style="rounded=0;whiteSpace=wrap;html=1;" parent="1" vertex="1">
          <mxGeometry x="150" y="310" width="90" height="30" as="geometry" />
        </mxCell>
        <mxCell id="NFCg2wp4Cs7eFLvAv7eK-29" value="Spatial Extension" style="rounded=0;whiteSpace=wrap;html=1;" parent="1" vertex="1">
          <mxGeometry x="150" y="350" width="90" height="30" as="geometry" />
        </mxCell>
        <mxCell id="PDT_9rkGRGusT-bPPKww-1" value="Deep Cold Layer" style="rounded=0;whiteSpace=wrap;html=1;" vertex="1" parent="1">
          <mxGeometry x="370" y="170" width="90" height="30" as="geometry" />
        </mxCell>
      </root>
    </mxGraphModel>
  </diagram>
</mxfile>
